<svg xmlns="http://www.w3.org/2000/svg" width="127" height="26" viewBox="0 0 127 26" fill="none"><g clip-path="url(#clip0_59_439)"><g clip-path="url(#clip1_59_439)"><mask id="mask0_59_439" style="mask-type:luminance" maskUnits="userSpaceOnUse" x="0" y="0" width="127" height="26"><path d="M127 0H0V25.9681H127V0Z" fill="white"></path></mask><g mask="url(#mask0_59_439)"><mask id="mask1_59_439" style="mask-type:luminance" maskUnits="userSpaceOnUse" x="0" y="0" width="127" height="26"><path d="M127 0H0V25.9681H127V0Z" fill="white"></path></mask><g mask="url(#mask1_59_439)"><mask id="mask2_59_439" style="mask-type:luminance" maskUnits="userSpaceOnUse" x="0" y="0" width="128" height="26"><path d="M127.048 0H0V25.9681H127.048V0Z" fill="white"></path></mask><g mask="url(#mask2_59_439)"><path d="M80.7444 18.1675C80.7444 22.1927 78.7842 25.9637 74.2127 25.9637C72.4918 25.9637 71.2816 25.3836 70.4621 24.5823L70.0869 25.9637H67.8606V6.0752H70.6849V18.3562C70.6849 20.8441 71.2942 23.5401 74.315 23.525C77.2446 23.5113 77.8884 20.7005 77.8884 18.3562C77.8884 16.0119 77.2432 13.2189 74.3136 13.2066C73.6988 13.2134 73.0897 13.3259 72.5139 13.539V11.2713C73.2941 10.9642 74.1234 10.7966 74.963 10.7762C78.9669 10.7762 80.7444 14.6838 80.7444 18.1675ZM55.1484 25.9637H57.9741V6.0752H55.1484V25.9637ZM105.69 10.7816C104.85 10.802 104.021 10.9697 103.241 11.2767V13.5445C103.816 13.3312 104.426 13.2188 105.041 13.2121C107.97 13.2244 108.615 16.0187 108.615 18.3617C108.615 20.7046 107.969 23.5127 105.035 23.525C102.014 23.5401 101.405 20.8441 101.405 18.3562V6.0752H98.5806V25.9651H100.807L101.181 24.5837C102.002 25.385 103.212 25.9651 104.932 25.9651C109.501 25.9651 111.464 22.1927 111.464 18.1688C111.464 14.6838 109.687 10.7762 105.69 10.7762V10.7816ZM125.765 22.0409V16.8284C125.765 12.7252 123.087 10.7884 120.001 10.7884C116.741 10.7884 114.449 12.8811 114.449 12.8811L115.798 14.785C116.102 14.5443 117.722 13.3461 119.846 13.3461C121.658 13.3461 123.127 14.1668 123.127 16.9173V20.1575C123.127 22.5798 120.635 23.6194 118.954 23.6194C117.46 23.6194 116.363 23.0284 116.363 21.7222C116.363 19.5106 119.436 18.85 121.291 18.943V16.8106C117.225 16.6041 113.578 18.2741 113.578 21.8891C113.578 24.4031 115.553 25.9595 118.51 25.9595C120.725 25.9595 122.64 25.1155 123.576 24.1937C124.077 25.4603 125.438 25.9595 126.494 25.9595L127.048 23.9189C126.159 23.7274 125.769 23.3075 125.769 22.0354L125.765 22.0409ZM95.0446 22.0409V16.8284C95.0446 12.7252 92.3671 10.7884 89.2812 10.7884C86.0206 10.7884 83.7295 12.8811 83.7295 12.8811L85.0792 14.785C85.3824 14.5443 87.0024 13.3461 89.1262 13.3461C90.9384 13.3461 92.4086 14.1668 92.4086 16.9173V20.1575C92.4086 22.5798 89.9166 23.6194 88.2344 23.6194C86.7407 23.6194 85.6427 23.0284 85.6427 21.7222C85.6427 19.5106 88.7163 18.85 90.5714 18.943V16.8106C86.5053 16.6041 82.8587 18.2741 82.8587 21.8891C82.8587 24.4031 84.8329 25.9595 87.79 25.9595C90.0052 25.9595 91.92 25.1155 92.8558 24.1937C93.357 25.4603 94.7179 25.9595 95.7742 25.9595L96.3281 23.9189C95.4391 23.7274 95.0488 23.3075 95.0488 22.0354L95.0446 22.0409ZM51.6139 22.0409V16.8284C51.6139 12.7252 48.9364 10.7884 45.8504 10.7884C42.5899 10.7884 40.2988 12.8811 40.2988 12.8811L41.6527 14.785C41.9558 14.5443 43.577 13.3461 45.6994 13.3461C47.5131 13.3461 48.9821 14.1668 48.9821 16.9173V20.1575C48.9821 22.5798 46.4901 23.6194 44.8079 23.6194C43.3155 23.6194 42.2175 23.0284 42.2175 21.7222C42.2175 19.5106 45.2898 18.85 47.1463 18.943V16.8106C43.0788 16.6096 39.4375 18.2796 39.4375 21.8946C39.4375 24.4084 41.4117 25.9651 44.3691 25.9651C46.5842 25.9651 48.4976 25.1211 49.4334 24.1992C49.9359 25.4657 51.2956 25.9651 52.3533 25.9651L52.907 23.9243C52.0084 23.7274 51.6209 23.3075 51.6209 22.0354L51.6139 22.0409ZM61.5003 25.9704H64.3248V11.2384H61.5003V25.9704ZM61.5003 8.8736H64.3248V6.0752H61.5003V8.8736Z" fill="white"></path><path d="M26.2094 24.4893C26.071 24.7369 25.7373 24.8491 25.4409 24.9324L22.0643 25.8749C21.768 25.9569 21.3984 26.0239 21.1505 25.8844C20.9027 25.745 20.7795 25.3989 20.7006 25.1076C15.7968 7.03685 15.1198 3.14153 13.1469 3.14153C11.1741 3.14153 10.5026 7.03685 5.59328 25.1076C5.51438 25.3989 5.38838 25.745 5.14333 25.8844C4.89828 26.0239 4.52448 25.9569 4.22821 25.8749L0.851487 24.9324C0.555211 24.8491 0.222943 24.7369 0.0844963 24.4893C-0.0539505 24.2417 0.00696619 23.8793 0.0844963 23.5962C5.10318 5.19588 7.90673 -0.00292969 13.1469 -0.00292969C18.3871 -0.00292969 21.1962 5.19451 26.208 23.5962C26.2856 23.8793 26.3437 24.25 26.2094 24.4893Z" fill="#C6C6C6"></path><path d="M29.2095 12.8662C29.2065 13.0432 29.1653 13.2176 29.0891 13.3777L28.9506 13.7566C28.8898 13.9806 28.7523 14.1768 28.5615 14.3119C28.3392 14.4042 28.0912 14.4182 27.8596 14.3516C23.4596 13.3923 18.8597 13.9465 14.822 15.9225C10.7842 17.8985 7.55072 21.1776 5.65693 25.2169C5.51849 25.5178 5.29974 25.9651 4.80687 25.9651C4.60954 25.9644 4.41347 25.9338 4.2254 25.8749L0.848679 24.9324H0.840372C0.449953 24.8229 0 24.6738 0 24.1529C0.0144288 23.9273 0.0766938 23.7075 0.182751 23.5074C2.58195 18.4269 6.84127 14.4337 12.1023 12.3327C17.3634 10.2317 23.235 10.1789 28.5338 12.185C28.7968 12.2808 29.2095 12.434 29.2095 12.8662Z" fill="url(#paint0_linear_59_439)"></path></g></g></g></g></g><defs><linearGradient id="paint0_linear_59_439" x1="0.00276893" y1="18.3385" x2="29.2095" y2="18.3385" gradientUnits="userSpaceOnUse"><stop offset="0.3" stop-color="white"></stop><stop offset="0.75" stop-color="#757575"></stop></linearGradient><clipPath id="clip0_59_439"><rect width="127" height="26" fill="white"></rect></clipPath><clipPath id="clip1_59_439"><rect width="127" height="26" fill="white"></rect></clipPath></defs></svg>