<svg xmlns="http://www.w3.org/2000/svg" width="82" height="30" viewBox="0 0 82 30" fill="none"><g clip-path="url(#clip0_49_414)"><g clip-path="url(#clip1_49_414)"><path d="M3.25858 28.2548C1.44694 28.2548 0.0175781 26.8421 0.0175781 25.0637C0.0175781 23.2521 1.43032 21.8726 3.2752 21.8726C5.03697 21.8726 6.44971 23.3019 6.44971 25.0637C6.44971 26.8587 5.05359 28.2548 3.25858 28.2548ZM3.25858 22.9695C2.07852 22.9695 1.16439 23.867 1.16439 25.0637C1.16439 26.2271 2.07852 27.1579 3.25858 27.1579C4.43863 27.1579 5.3029 26.2604 5.3029 25.0803C5.28628 23.8836 4.40539 22.9695 3.25858 22.9695Z" fill="white"></path><path d="M8.7265 24.5317V28.155H7.61293V24.5317H7.06445V23.5179H7.61293V21.9722H8.7265V23.5179H9.39132V24.5317H8.7265Z" fill="white"></path><path d="M13.729 28.1553V27.557C13.2802 28.0556 12.8481 28.2716 12.1999 28.2716C10.8537 28.2716 9.87305 27.2578 9.87305 25.8617C9.87305 24.4489 10.8537 23.4185 12.2332 23.4185C12.898 23.4185 13.3634 23.6345 13.7456 24.1498V23.5182H14.7595V28.1387H13.729V28.1553ZM12.3495 24.4323C11.5517 24.4323 11.0032 25.0306 11.0032 25.8783C11.0032 26.6927 11.5683 27.2412 12.3661 27.2412C13.2138 27.2412 13.7124 26.6428 13.7124 25.8783C13.6958 25.0306 13.1307 24.4323 12.3495 24.4323Z" fill="white"></path><path d="M18.0506 30.0002C16.9204 30.0002 16.0396 29.4517 15.6739 28.5376H16.9371C17.2695 28.9032 17.5853 29.0362 18.1005 29.0362C18.9315 29.0362 19.347 28.5542 19.3969 27.557C18.9648 28.0722 18.5326 28.2716 17.8844 28.2716C16.5714 28.2716 15.6074 27.2412 15.6074 25.8118C15.6074 24.4489 16.5714 23.4185 17.8844 23.4185C18.5493 23.4185 19.0479 23.6511 19.3969 24.1165V23.5182H20.4606V27.2744C20.444 29.2523 19.48 30.0002 18.0506 30.0002ZM18.0008 24.4323C17.2196 24.4323 16.721 24.9974 16.721 25.8451C16.721 26.6927 17.2362 27.2246 18.0174 27.2246C18.7986 27.2246 19.3304 26.6761 19.3304 25.8451C19.3304 25.014 18.7986 24.4323 18.0008 24.4323Z" fill="white"></path><path d="M24.4995 28.1555V25.7954C24.4995 24.8314 24.2502 24.4491 23.602 24.4491C22.9704 24.4491 22.6214 24.7981 22.6214 25.812V28.1555H21.5078V21.9893H22.6214V23.8508C22.9538 23.5516 23.3194 23.4186 23.8014 23.4186C24.915 23.4186 25.6131 24.0336 25.6131 25.546V28.1555H24.4995Z" fill="white"></path><path d="M30.4009 28.1553V27.557C29.9521 28.0556 29.52 28.2716 28.8718 28.2716C27.5255 28.2716 26.5449 27.2578 26.5449 25.8617C26.5449 24.4489 27.5255 23.4185 28.905 23.4185C29.5699 23.4185 30.0352 23.6345 30.4175 24.1498V23.5182H31.4313V28.1387H30.4009V28.1553ZM29.0048 24.4323C28.207 24.4323 27.6585 25.0306 27.6585 25.8783C27.6585 26.6927 28.2236 27.2412 29.0214 27.2412C29.869 27.2412 30.3676 26.6428 30.3676 25.8783C30.3676 25.0306 29.8025 24.4323 29.0048 24.4323Z" fill="white"></path><path d="M35.1515 28.1555L33.5726 25.9948V28.1555H32.459V21.9893H33.5726V25.7122L35.0518 23.535H36.3814L34.736 25.7954L36.664 28.1555H35.1515Z" fill="white"></path><path d="M37.6621 28.155V27.0913H38.7757V28.155H37.6621Z" fill="white"></path><path d="M42.3339 28.255C40.971 28.255 39.8574 27.1747 39.8574 25.8284C39.8574 24.4656 40.9211 23.4019 42.3006 23.4019C43.3477 23.4019 44.2785 24.0002 44.6275 25.0473H43.381C43.1483 24.6152 42.7993 24.4157 42.3006 24.4157C41.5361 24.4157 40.9876 24.9974 40.9876 25.8118C40.9876 26.6262 41.5693 27.2246 42.3339 27.2246C42.7992 27.2246 43.115 27.0417 43.381 26.6096H44.6275C44.2452 27.6567 43.4142 28.255 42.3339 28.255Z" fill="white"></path><path d="M47.868 28.255C46.5218 28.255 45.4082 27.1747 45.4082 25.8284C45.4082 24.4988 46.5052 23.4019 47.8514 23.4019C49.2475 23.4019 50.3279 24.4822 50.3279 25.8617C50.3279 27.1747 49.2143 28.255 47.868 28.255ZM47.868 24.4323C47.1367 24.4323 46.5384 25.0639 46.5384 25.8118C46.5384 26.6096 47.1367 27.2246 47.8847 27.2246C48.616 27.2246 49.2143 26.593 49.2143 25.8284C49.2143 25.0639 48.616 24.4323 47.868 24.4323Z" fill="white"></path><path d="M56.991 28.1553V25.6124C56.991 24.6816 56.642 24.4323 56.1267 24.4323C55.5118 24.4323 55.196 24.7647 55.196 25.8617V28.1387H54.0824V25.5958C54.0824 24.6816 53.7666 24.4157 53.1849 24.4157C52.5367 24.4157 52.2874 24.7647 52.2874 25.8451V28.1221H51.1738V23.5182H52.1877V23.9503C52.5201 23.5514 52.8525 23.4019 53.3844 23.4019C54.0159 23.4019 54.4314 23.6179 54.7472 24.1165C55.1295 23.6179 55.5783 23.4019 56.2265 23.4019C57.4398 23.4019 58.1046 24.0833 58.1046 25.4628V28.1387H56.991V28.1553Z" fill="white"></path><path d="M70.9857 0.0166149C65.7003 0.249302 61.4455 4.58725 61.2959 9.87257C61.2294 12.0166 61.8444 14.0111 62.9081 15.6731L71.3181 28.0388C71.3845 28.1385 71.5508 28.1385 71.6172 28.0388L80.0272 15.6731C81.0909 14.1108 81.6394 12.1994 81.6394 10.1717C81.6394 4.38781 76.8195 -0.265934 70.9857 0.0166149ZM71.4677 17.0859C67.6283 17.0859 64.5203 13.9778 64.5203 10.1385C64.5203 6.29916 67.6283 3.19113 71.4677 3.19113C75.307 3.19113 78.415 6.29916 78.415 10.1385C78.415 13.9778 75.307 17.0859 71.4677 17.0859Z" fill="white"></path><path d="M73.0116 4.83656L69.8537 5.58448C69.7706 5.6011 69.7207 5.6842 69.7207 5.76731V14.6094C69.7207 14.6925 69.7872 14.759 69.8537 14.7922L73.0116 15.5069C73.1279 15.5402 73.2276 15.4404 73.2276 15.3241V5.01938C73.2276 4.90304 73.1113 4.80332 73.0116 4.83656Z" fill="white"></path><path d="M44.7578 17.9499C43.8603 17.9499 43.0791 17.8834 42.4309 17.7837C41.7661 17.684 41.2343 17.5178 40.7855 17.2851C40.3368 17.0524 39.9877 16.7865 39.7218 16.4707C39.4559 16.1383 39.2564 15.7394 39.1068 15.274C38.9573 14.8253 38.8742 14.31 38.8243 13.7283C38.7911 13.1466 38.7578 12.5316 38.7578 11.8336V0.182617H41.816V11.8502C41.816 12.515 41.8326 13.0469 41.8825 13.4292C41.9157 13.8114 42.0487 14.1272 42.2315 14.3599C42.4143 14.5926 42.7301 14.7256 43.1124 14.792C43.4947 14.8585 44.0431 14.8918 44.7412 14.8918V17.9499H44.7578Z" fill="white"></path><path d="M58.105 17.7673H55.0469V0H58.105V17.7673Z" fill="white"></path><path d="M24.6981 17.9499H24.5319C23.7673 17.9499 22.903 17.6341 22.2382 17.2685C21.5568 16.9028 20.9252 16.371 20.3269 15.6729C19.5457 17.1023 18.1496 17.8336 16.1551 17.8336H4.93629C2.74238 17.8336 1.26316 16.9361 0.515235 15.1244C0.166205 14.31 0 13.2962 0 12.1494V10.1715H3.02493V11.9998C3.02493 12.9472 3.17452 13.6286 3.47368 14.0275C3.78947 14.443 4.23823 14.6425 4.86981 14.6425H16.0554C16.554 14.6425 16.9363 14.6092 17.2521 14.4929C17.5346 14.3931 17.7507 14.2602 17.8504 14.1272C17.9501 13.961 18.0166 13.7782 18.0166 13.5289C18.0166 13.5123 18.0166 13.4624 18.0166 13.4458C18.0166 13.4292 18 13.3793 17.9834 13.3461C17.9668 13.3128 17.9501 13.263 17.9169 13.1965C17.9003 13.13 17.8504 13.0967 17.8338 13.0303C17.8006 12.9638 17.7507 12.9139 17.7175 12.8308C17.6842 12.7643 17.6177 12.6812 17.5679 12.5815C17.5014 12.4984 17.4515 12.4153 17.385 12.3156C17.3186 12.2325 17.2355 12.1328 17.1524 12.033C17.0693 11.9333 16.9861 11.8336 16.8864 11.7172L13.7285 8.11059C13.6288 7.99425 13.5291 7.87791 13.446 7.77818C13.3629 7.67846 13.2798 7.57874 13.1967 7.4624C13.1136 7.36267 13.0471 7.27957 12.964 7.19647C12.8975 7.11336 12.8476 7.03026 12.7812 6.94716C12.5152 6.58151 12.3989 6.14938 12.4321 5.63414C12.4654 5.0358 12.6316 4.52057 12.9307 4.12168C13.2133 3.70616 13.6122 3.40699 14.1274 3.22417L24.6981 0.182617V3.37375L15.7729 5.81697L22.1717 13.1466C22.4044 13.4125 22.6205 13.6452 22.8532 13.8447C23.0526 14.0441 23.2687 14.2103 23.4515 14.31C23.6343 14.4264 24.2493 14.7256 24.4654 14.7754C24.615 14.8087 24.7313 14.8585 24.8476 14.8585H25.097C25.5125 14.8585 25.446 14.925 25.5623 15.058C25.795 15.3405 25.9114 15.7228 25.9114 16.1383V16.2546C25.9114 16.6868 25.795 17.0524 25.5623 17.335C25.2964 17.684 25.1136 17.9499 24.6981 17.9499Z" fill="white"></path><path d="M51.8718 9.44043H48.8967V12.8809C48.8967 12.9141 48.8967 12.9806 48.8967 13.0305C48.8967 13.4626 48.8302 13.8116 48.6973 14.0609C48.5477 14.3102 48.3815 14.4931 48.1986 14.6094C48.0158 14.7257 47.833 14.8089 47.6502 14.8421C47.4673 14.8587 47.3177 14.8753 47.218 14.8753H44.4258V17.9335H47.1515C47.7333 17.9335 48.2817 17.8338 48.8302 17.651C49.3787 17.4515 49.8939 17.1523 50.3427 16.7534C50.7914 16.3379 51.1571 15.8559 51.423 15.2077C51.7056 14.5928 51.8385 13.8449 51.8385 13.0138C51.8385 12.9806 51.8385 12.9141 51.8385 12.8643L51.8718 9.44043Z" fill="white"></path><path d="M36.9808 12.0668C36.9475 11.7011 36.8977 11.3355 36.8312 10.9532C36.7647 10.5709 36.7148 10.1887 36.6317 9.82302C36.5653 9.45737 36.4822 9.10834 36.4323 8.79255C36.3991 8.60972 36.3326 8.44352 36.316 8.29393C36.2993 8.14435 36.2162 7.87842 36.2162 7.87842C36.0666 7.41305 35.8838 6.93105 35.6345 6.51554C35.3852 6.06679 35.086 5.66789 34.6871 5.3521C34.3215 5.01969 33.8727 4.73714 33.3741 4.5377C32.8589 4.33825 32.2938 4.20529 31.629 4.18867C30.8977 4.15543 30.2162 4.27177 29.6013 4.52108C28.9863 4.78701 28.4545 5.13604 27.9725 5.58479C27.5237 6.03354 27.1747 6.5654 26.9088 7.18036C26.6594 7.79532 26.5265 8.4269 26.5265 9.12496C26.5265 9.98922 26.6927 10.7538 27.0251 11.3687C27.3575 11.9837 27.8063 12.4989 28.4212 12.8646C29.0362 13.2302 29.7841 13.4795 30.6317 13.5959C31.496 13.7122 32.9254 13.6624 34.0223 13.5128C33.9891 13.6956 33.9392 13.8784 33.8561 14.0114C33.7065 14.2607 33.5403 14.4435 33.3575 14.5599C33.1747 14.6762 32.9919 14.7593 32.809 14.7925C32.6262 14.8092 32.4766 14.8258 32.3769 14.8258H31.496H31.4794C30.9642 14.8258 30.4323 14.8258 29.7342 14.8258H28.3547H24.7148V17.884H29.7509H32.2938C32.8755 17.884 33.424 17.7842 33.9725 17.6014C34.5209 17.402 35.0362 17.1028 35.4849 16.7039C35.9337 16.2884 36.2993 15.8064 36.5653 15.1582C36.8478 14.5432 36.9808 13.7953 36.9808 12.9643C37.0306 12.7482 37.014 12.4491 36.9808 12.0668ZM30.3492 10.7538C29.6511 10.5211 29.3021 9.82302 29.3021 9.10834C29.3021 8.77593 29.3686 8.51 29.4849 8.26069C29.6013 8.01138 29.7675 7.81194 30.0002 7.64573C30.1996 7.47953 30.4489 7.36318 30.7315 7.2967C31.014 7.23022 31.3132 7.2136 31.5957 7.23022C32.0611 7.26346 32.4434 7.42967 32.7093 7.66235C32.9586 7.89504 33.075 8.028 33.2079 8.34379C33.2079 8.36041 33.3243 8.70944 33.3243 8.72606C33.3575 8.87565 33.4738 9.34102 33.5237 9.60695L33.773 10.8867C32.4101 10.9033 31.014 10.9865 30.3492 10.7538Z" fill="white"></path><path d="M28.6549 3.00867C28.3225 2.67626 28.1562 2.29398 28.1562 1.81199C28.1562 1.33 28.3225 0.947724 28.6549 0.615314C28.9873 0.282904 29.3695 0.116699 29.8515 0.116699C30.0177 0.116699 30.1674 0.13332 30.3004 0.183181C30.45 0.216422 30.5662 0.282904 30.7158 0.349386C30.8321 0.432489 30.9651 0.515591 31.0648 0.615314C31.231 0.781519 31.3474 0.947724 31.4305 1.14717C31.5136 1.34662 31.5469 1.56268 31.5469 1.77875C31.5469 1.84523 31.5469 1.87847 31.5469 1.92833C31.5469 1.96157 31.5468 2.01144 31.5302 2.07792C31.5302 2.11116 31.5136 2.16102 31.5136 2.19426C31.5136 2.2275 31.4971 2.27736 31.4804 2.31061C31.4638 2.34385 31.4637 2.39371 31.4471 2.42695C31.4305 2.46019 31.4139 2.51005 31.3806 2.54329C31.364 2.57653 31.3474 2.62639 31.3141 2.64302C31.2975 2.67626 31.2809 2.7095 31.2477 2.74274C31.231 2.77598 31.2144 2.80922 31.1646 2.84246C31.1313 2.8757 31.0981 2.90894 31.0648 2.94218C30.7324 3.27459 30.3502 3.4408 29.8682 3.4408C29.3862 3.50728 28.9873 3.34108 28.6549 3.00867Z" fill="white"></path><path d="M31.5273 1.8281C31.5273 1.36273 31.6935 0.963838 32.026 0.631427C32.3584 0.299017 32.7406 0.132812 33.2226 0.132812C33.4553 0.132812 33.6714 0.166054 33.8875 0.249157C34.1035 0.332259 34.2697 0.448603 34.4359 0.614808C34.6021 0.781013 34.7185 0.963837 34.8016 1.14666C34.8847 1.34611 34.9179 1.56218 34.9179 1.77824C34.9179 2.02755 34.8847 2.227 34.8016 2.44306C34.7185 2.64251 34.6021 2.80871 34.4359 2.97492C34.3362 3.07464 34.2032 3.17436 34.0869 3.24085C33.9706 3.32395 33.8376 3.35719 33.7046 3.40705C33.555 3.44029 33.4221 3.47353 33.2559 3.47353C33.0232 3.47353 32.8071 3.44029 32.5911 3.35719C32.3916 3.27409 32.2088 3.15774 32.0426 2.99154C31.8764 2.82533 31.76 2.64251 31.6769 2.45968C31.5772 2.27686 31.5273 2.04417 31.5273 1.8281Z" fill="white"></path><path d="M45.5904 6.3822C45.258 6.04979 45.0918 5.66752 45.0918 5.18553C45.0918 4.72015 45.258 4.32126 45.5904 3.98885C45.9228 3.65644 46.3051 3.49023 46.7871 3.49023C46.9533 3.49023 47.1029 3.50686 47.2358 3.55672C47.3854 3.58996 47.5018 3.65644 47.6514 3.72292C47.7677 3.80602 47.9007 3.88913 48.0004 3.98885C48.1666 4.15505 48.2829 4.32126 48.366 4.52071C48.4491 4.72015 48.4824 4.93622 48.4824 5.15228C48.4824 5.21877 48.4824 5.25201 48.4824 5.30187C48.4824 5.35173 48.4824 5.38497 48.4658 5.45145C48.4658 5.48469 48.4491 5.53456 48.4491 5.5678C48.4491 5.60104 48.4325 5.6509 48.4159 5.68414C48.3993 5.71738 48.3993 5.76724 48.3827 5.80048C48.366 5.83372 48.3494 5.88359 48.3162 5.91683C48.2996 5.95007 48.2829 5.99993 48.2497 6.01655C48.2331 6.04979 48.2165 6.08303 48.1832 6.11627C48.1666 6.14951 48.15 6.18276 48.1001 6.216C48.0669 6.24924 48.0336 6.28248 48.0004 6.31572C47.668 6.64813 47.2857 6.81433 46.8037 6.81433C46.3051 6.88082 45.8896 6.71461 45.5904 6.3822Z" fill="white"></path><path d="M48.4316 5.18553C48.4316 4.72015 48.5978 4.32126 48.9303 3.98885C49.2627 3.65644 49.6449 3.49023 50.1269 3.49023C50.3596 3.49023 50.5757 3.52348 50.7917 3.60658C50.9912 3.68968 51.174 3.80602 51.3402 3.97223C51.5064 4.13843 51.6228 4.32126 51.7059 4.50408C51.789 4.70353 51.8222 4.9196 51.8222 5.13566C51.8222 5.38497 51.789 5.58442 51.7059 5.80048C51.6228 5.99993 51.5064 6.16613 51.3402 6.33234C51.2405 6.43206 51.1075 6.53179 50.9912 6.59827C50.8749 6.68137 50.7419 6.71461 50.6089 6.76447C50.4593 6.79771 50.3264 6.83095 50.1602 6.83095C49.9275 6.83095 49.7114 6.79771 49.4954 6.71461C49.2959 6.63151 49.1131 6.51517 48.9469 6.34896C48.7807 6.18276 48.6643 5.99993 48.5812 5.8171C48.4815 5.6509 48.4316 5.43483 48.4316 5.18553Z" fill="white"></path></g></g><defs><clipPath id="clip0_49_414"><rect width="82" height="30" fill="white"></rect></clipPath><clipPath id="clip1_49_414"><rect width="82" height="30" fill="white"></rect></clipPath></defs></svg>