<svg xmlns="http://www.w3.org/2000/svg" width="117" height="40" viewBox="0 0 117 40" fill="none"><g clip-path="url(#clip0_49_407)"><path d="M12.2882 11.6936C12.2991 11.7263 12.3073 11.7536 12.3127 11.7754C12.34 11.8627 12.3645 11.9472 12.3864 12.0291C12.4573 12.28 12.5227 12.5282 12.5827 12.7736C12.7573 13.5263 12.8445 14.1509 12.8445 14.6472C12.8445 15.7872 12.5227 16.7036 11.8791 17.3963C11.2245 18.1109 10.3764 18.4682 9.33455 18.4682C8.79455 18.4682 8.27909 18.3618 7.78818 18.1491C7.85364 18.9618 7.89727 19.8291 7.91909 20.7509C7.92455 21.1 7.92727 21.4845 7.92727 21.9045C7.92727 22.0627 7.92455 22.2427 7.91909 22.4445V23.7536H5.23545C5.23545 23.6718 5.23818 23.5382 5.24364 23.3527V22.4854C5.24909 22.3109 5.25182 22.1527 5.25182 22.0109C5.25182 21.6454 5.24909 21.3072 5.24364 20.9963C5.23273 20.1945 5.2 19.4391 5.14545 18.73C5.01455 16.8645 4.73364 15.1272 4.30273 13.5182V13.51C4.20455 13.1445 4.10364 12.8063 4 12.4954L6.56091 11.6854C6.67 12.0182 6.77909 12.3945 6.88818 12.8145C6.89364 12.8363 6.90182 12.8636 6.91273 12.8963C6.92909 12.94 6.94273 12.9836 6.95364 13.0272C7.00273 13.1582 7.05455 13.2891 7.10909 13.42C7.26727 13.8072 7.44455 14.1618 7.64091 14.4836C8.18636 15.3509 8.75091 15.7845 9.33455 15.7845C9.59636 15.7845 9.78727 15.7163 9.90727 15.58C10.0764 15.4 10.1609 15.0891 10.1609 14.6472C10.1609 14.3854 10.1091 14.0172 10.0055 13.5427C9.91818 13.15 9.82273 12.79 9.71909 12.4627L12.2718 11.6445L12.2882 11.6936ZM24.5958 18.5172C24.5904 18.5172 24.5687 18.5227 24.5305 18.5336C24.4868 18.5391 24.4323 18.5472 24.3668 18.5582C24.1923 18.5909 23.9959 18.6209 23.7777 18.6482C23.1123 18.7354 22.4005 18.7982 21.6423 18.8363C21.3914 18.8472 21.1459 18.8527 20.9059 18.8527C19.7059 18.8527 18.6286 18.7054 17.674 18.4109C17.734 19.18 17.7695 19.9982 17.7804 20.8654C17.7858 21.2036 17.7886 21.5691 17.7886 21.9618V23.7536H15.1049V22.9354C15.1049 22.6136 15.1076 22.3545 15.1131 22.1582C15.1131 21.8582 15.1104 21.58 15.1049 21.3236C15.0995 20.6636 15.0832 20.0418 15.0559 19.4582C14.9796 17.9472 14.8131 16.5291 14.5567 15.2036C14.5131 15.0291 14.4831 14.8954 14.4667 14.8027H14.4749C14.3004 13.99 14.0986 13.2209 13.8695 12.4954L16.4222 11.6854C16.7222 12.6291 16.9731 13.6054 17.1749 14.6145C17.2076 14.7236 17.2349 14.8027 17.2567 14.8518V14.7127L17.2486 14.5654C17.2486 14.4836 17.2567 14.3827 17.2731 14.2627C17.3004 14.11 17.3358 13.9545 17.3795 13.7963C17.4995 13.36 17.6822 12.9645 17.9276 12.61C18.6422 11.5736 19.7414 11.0554 21.225 11.0554C21.7214 11.0554 22.1932 11.1482 22.6405 11.3336C22.8205 11.41 23.025 11.5109 23.2541 11.6363C23.3359 11.6854 23.4396 11.7454 23.565 11.8163L23.8923 12.0127L24.1296 12.16L24.2523 12.2336L24.3832 12.3072L23.0823 14.5409C22.7659 14.3609 22.455 14.2136 22.1496 14.0991C21.735 13.9518 21.3505 13.8782 20.9959 13.8782C20.625 13.8782 20.3195 13.9709 20.0795 14.1563C19.8613 14.3254 19.7414 14.5354 19.7196 14.7863C19.7141 14.8354 19.7114 14.8818 19.7114 14.9254C19.7114 15.3236 19.8859 15.64 20.235 15.8745C20.5787 16.1091 21.0558 16.2263 21.6667 16.2263C21.8522 16.2263 22.0486 16.2154 22.2558 16.1936C22.9104 16.1282 23.4696 16.0382 23.9332 15.9236L24.5958 18.5172ZM52.9176 19.4827C52.9721 19.7172 52.9994 19.9627 52.9994 20.2191C52.9994 20.4263 52.9804 20.6418 52.9422 20.8654C52.8495 21.3727 52.6667 21.8336 52.3939 22.2482C51.7448 23.2463 50.7985 23.7454 49.5548 23.7454C48.993 23.7454 48.4667 23.6609 47.9758 23.4918C47.643 23.3663 47.3403 23.2027 47.0676 23.0009C46.4185 23.4972 45.674 23.7454 44.834 23.7454C44.3704 23.7454 43.9503 23.6936 43.5739 23.59C43.5358 24.8172 43.1812 25.8209 42.5103 26.6009C42.063 27.1245 41.4848 27.5172 40.7758 27.7791C40.0667 28.03 39.2621 28.1554 38.3621 28.1554H36.5048C35.6212 28.1554 34.8168 27.9591 34.0913 27.5663C33.3659 27.1791 32.7822 26.6309 32.3404 25.9218C32.0404 25.4254 31.8249 24.8882 31.694 24.31C31.5904 23.8409 31.5386 23.3445 31.5386 22.8209C31.5386 22.69 31.5413 22.5591 31.5468 22.4282C31.6286 21.0591 32.0568 19.6 32.8313 18.0509L35.2285 19.2372C34.6121 20.4918 34.2768 21.6072 34.2222 22.5836C34.2168 22.6818 34.214 22.7772 34.214 22.87C34.214 23.53 34.3504 24.0754 34.6231 24.5063C34.8468 24.8663 35.1495 25.1254 35.5313 25.2836C35.8204 25.4091 36.1448 25.4718 36.5048 25.4718H38.3621C39.3876 25.4718 40.0776 25.3027 40.4321 24.9645C40.743 24.67 40.8985 24.1245 40.8985 23.3282V18.0918H43.5739V20.08C43.5739 20.7345 43.9339 21.0618 44.6539 21.0618C44.9539 21.0618 45.1912 21.0045 45.3658 20.89C45.6112 20.7318 45.7339 20.4618 45.7339 20.08V18.0918H48.4176V20.08C48.4176 20.4182 48.4804 20.6582 48.6059 20.8C48.7531 20.9745 49.023 21.0618 49.4158 21.0618C50.0376 21.0618 50.3485 20.8463 50.3485 20.4154C50.3485 20.3227 50.3348 20.2191 50.3076 20.1045C49.9967 18.8227 49.7948 17.9636 49.7021 17.5272L52.3039 16.9054C52.4621 17.56 52.6667 18.4191 52.9176 19.4827ZM46.8713 14.5491L45.2512 16.1854L43.6312 14.5654L45.2512 12.9291L46.8713 14.5491ZM50.4221 14.5245L48.8186 16.1445L47.1576 14.5409L48.7939 12.9045L50.4221 14.5245ZM48.4585 12.4136L47.0348 13.8372L45.6276 12.43L47.0513 11.0063L48.4585 12.4136ZM58.6889 18.0836V20.3172C58.6889 20.5518 58.809 20.74 59.049 20.8818C59.24 21.0018 59.4335 21.0618 59.6299 21.0618H60.0062V23.7454H59.6299C59.3135 23.7454 58.9781 23.6936 58.6236 23.59C58.4654 24.7954 58.0589 25.7663 57.4044 26.5027C56.4499 27.5882 55.0535 28.1309 53.2153 28.1309H52.4053V25.4472H53.2153C54.2189 25.4472 54.9335 25.2209 55.3589 24.7682C55.7899 24.3154 56.0053 23.5572 56.0053 22.4936V18.0836H58.6889ZM66.703 19.5891C66.7466 19.8509 66.7684 20.1018 66.7684 20.3418C66.7684 21.0836 66.5557 21.7491 66.1302 22.3382C65.4484 23.2763 64.3384 23.7454 62.8002 23.7454H59.6012V21.0618H62.743C63.2339 21.0618 63.5803 20.9963 63.7822 20.8654C63.9894 20.74 64.093 20.5409 64.093 20.2682C64.093 20.1863 64.0821 20.0963 64.0602 19.9982C64.0057 19.72 63.9512 19.4363 63.8966 19.1472C63.8748 19.0382 63.853 18.9209 63.8312 18.7954L63.7985 18.64L63.7739 18.4845C63.6921 18.0372 63.6294 17.7182 63.5858 17.5272L66.1466 16.75C66.3102 17.5191 66.4957 18.4654 66.703 19.5891ZM64.7966 28.4254L63.1931 26.8054L64.7803 25.1691L66.4166 26.8054L64.7966 28.4254ZM61.3439 28.4336L59.7402 26.8136L61.3193 25.1772L62.9557 26.8136L61.3439 28.4336ZM72.512 14.7045C72.6538 14.9227 72.8447 15.2063 73.0847 15.5554C73.7174 16.51 74.4838 17.6609 75.3838 19.0082C75.4329 19.0845 75.4847 19.1609 75.5392 19.2372C75.6102 19.3354 75.6783 19.4336 75.7438 19.5318C75.9347 19.7936 76.1147 20.0227 76.2838 20.2191C76.7638 20.7863 77.132 21.07 77.3883 21.07H77.9611V23.7454H77.1838C76.3874 23.7454 75.6265 23.4209 74.9011 22.7718C74.6665 23.0227 74.3992 23.23 74.0992 23.3936C73.5429 23.71 72.9156 23.8682 72.2174 23.8682C71.4483 23.8682 70.4938 23.74 69.3538 23.4836C68.9938 23.4018 68.6338 23.3118 68.2738 23.2136C68.1538 23.1809 68.042 23.1482 67.9383 23.1154C67.9002 23.1045 67.8673 23.0963 67.8401 23.0909L67.8073 23.0827L67.791 23.0745L68.5847 20.5136C68.7702 20.5682 68.9883 20.6309 69.2392 20.7018C69.5611 20.7836 69.8747 20.8572 70.1802 20.9227C71.0202 21.1027 71.6992 21.1927 72.2174 21.1927C72.6265 21.1927 72.8965 21.07 73.0274 20.8245C73.0711 20.7482 73.0928 20.6691 73.0928 20.5872C73.0928 20.4454 73.0356 20.29 72.9211 20.1209C72.4411 19.4118 71.9964 18.7518 71.5873 18.1409C71.2764 17.6772 70.9847 17.2436 70.712 16.84L70.0738 15.8827L72.3156 14.4182L72.512 14.7045ZM70.0247 11.7182L71.7265 10L73.4611 11.7345L71.7346 13.4527L70.0247 11.7182ZM84.6503 19.5891C84.694 19.8509 84.7158 20.1018 84.7158 20.3418C84.7158 21.0836 84.5031 21.7491 84.0776 22.3382C83.3958 23.2763 82.2858 23.7454 80.7476 23.7454H77.5485V21.0618H80.6903C81.1813 21.0618 81.5276 20.9963 81.7294 20.8654C81.9367 20.74 82.0403 20.5409 82.0403 20.2682C82.0403 20.1863 82.0294 20.0963 82.0076 19.9982C81.9531 19.72 81.8985 19.4363 81.844 19.1472C81.8222 19.0382 81.8003 18.9209 81.7785 18.7954L81.7458 18.64L81.7213 18.4845C81.6394 18.0372 81.5767 17.7182 81.5331 17.5272L84.094 16.75C84.2576 17.5191 84.4431 18.4654 84.6503 19.5891ZM79.4713 28.2863L77.8512 26.6991L79.4713 25.03L81.0913 26.6991L79.4713 28.2863ZM82.9976 28.3191L81.3613 26.6991L83.0222 25.0791L84.6258 26.6991L82.9976 28.3191ZM81.2713 30.2091L79.8475 28.7854L81.2549 27.3782L82.6785 28.8018L81.2713 30.2091Z" fill="white"></path><path d="M113.523 19.1352L113.316 15.7131C113.28 15.1994 113.13 14.7002 112.877 14.2517C112.624 13.8032 112.274 13.4167 111.853 13.1201L110.045 11.858C108.68 10.9046 107.227 10.084 105.707 9.4074L103.184 8.28659C102.748 8.092 102.274 7.99467 101.796 8.00133C101.295 7.98707 100.796 8.08738 100.34 8.29463L97.7249 9.47929C96.3377 10.1074 95.0082 10.8557 93.7516 11.7156L91.7033 13.1166C91.275 13.4125 90.9186 13.8009 90.6607 14.2532C90.4027 14.7054 90.2498 15.2098 90.2132 15.7292L90.0095 19.1334C89.9968 20.0432 89.9968 20.9531 90.0095 21.8628L90.2146 25.285C90.251 25.7986 90.4012 26.2977 90.6543 26.7462C90.9074 27.1947 91.257 27.5813 91.6778 27.878L93.4863 29.1433C94.8513 30.0968 96.3045 30.9175 97.826 31.5939L100.348 32.7154C100.785 32.9095 101.258 33.0065 101.736 32.9995C102.238 33.0138 102.736 32.9135 103.193 32.7062L105.808 31.5229C107.195 30.8949 108.524 30.1466 109.781 29.2866L111.829 27.8856C112.257 27.5897 112.614 27.2013 112.872 26.7491C113.13 26.2969 113.282 25.7925 113.319 25.2733L113.523 21.9159C113.532 21.1851 113.546 19.9986 113.523 19.1352Z" fill="white"></path><path d="M101.886 12.2369L101.894 12.3559C101.894 12.37 101.899 12.3835 101.908 12.3941C101.918 12.4047 101.93 12.4118 101.944 12.414C101.962 12.4186 101.981 12.4221 101.999 12.4243C102.181 12.4457 102.362 12.4764 102.541 12.5162C102.823 12.5747 103.102 12.6479 103.376 12.7356C104.674 13.1431 105.853 13.8595 106.813 14.8233C107.04 15.0503 107.253 15.2911 107.45 15.5445C107.523 15.6382 107.522 15.6363 107.636 15.6026C107.765 15.5651 107.896 15.5399 108.029 15.5272C108.19 15.513 108.353 15.5153 108.513 15.5339C108.674 15.5522 108.832 15.5913 108.982 15.6501C109.41 15.8079 109.773 16.1038 110.014 16.4909C110.21 16.8119 110.316 17.18 110.32 17.5562C110.309 18.1014 110.082 18.62 109.689 18.9979C109.296 19.3758 108.768 19.582 108.223 19.5713C108.182 19.5722 108.141 19.5705 108.1 19.5663C107.973 19.5578 107.847 19.5386 107.723 19.5086C107.382 19.4258 107.067 19.257 106.809 19.0183C106.552 18.7796 106.36 18.4789 106.251 18.1448C106.161 17.8661 106.136 17.5705 106.177 17.2806C106.214 17.0063 106.306 16.7424 106.449 16.5057C106.593 16.269 106.783 16.0647 107.01 15.9055C107.027 15.8924 107.044 15.8798 107.061 15.8658C107.066 15.8626 107.067 15.8554 107.074 15.8428C107.061 15.8231 107.047 15.7996 107.03 15.7785C105.998 14.5023 104.595 13.5783 103.015 13.1345C102.772 13.0662 102.527 13.0094 102.28 12.9643C102.173 12.9446 102.065 12.9301 101.958 12.9142C101.917 12.908 101.898 12.9218 101.895 12.9602C101.893 13.0155 101.895 13.0709 101.893 13.126V13.3217C101.893 13.3271 101.893 13.3327 101.892 13.338C101.89 13.3433 101.888 13.3483 101.885 13.3527C101.881 13.357 101.877 13.3607 101.872 13.3634C101.867 13.3661 101.862 13.3679 101.857 13.3685H101.845C101.727 13.3685 101.608 13.3685 101.491 13.3658C101.486 13.3658 101.48 13.3607 101.468 13.3545C101.464 13.3326 101.461 13.3106 101.46 13.2884V13.0766C101.459 13.0521 101.458 13.0275 101.455 13.0031C101.454 12.9922 101.449 12.982 101.441 12.9745C101.433 12.9671 101.423 12.9628 101.412 12.9627C101.399 12.9618 101.387 12.9618 101.375 12.9627L100.965 12.9781C100.906 12.9785 100.846 12.9819 100.788 12.9884C100.655 13.0024 100.522 13.016 100.39 13.0344C100.258 13.0527 100.126 13.0757 99.9944 13.0987C99.8045 13.1315 99.6175 13.1765 99.4317 13.2271C98.0706 13.5948 96.8403 14.3381 95.8816 15.372C95.4349 15.8545 95.0555 16.3953 94.7539 16.9797C94.5746 17.326 94.4241 17.6865 94.3038 18.0576C94.2302 18.2854 94.1684 18.5169 94.1187 18.7512C94.0772 18.9433 94.0435 19.1366 94.0176 19.3309C93.9976 19.4799 93.9882 19.6294 93.9758 19.7803C93.9691 19.8596 93.9648 19.9393 93.962 20.0194C93.962 20.0757 93.974 20.0883 94.0309 20.0929H94.9246C94.9633 20.0875 95.0028 20.0919 95.0394 20.1056C95.0453 20.1184 95.0494 20.1319 95.0518 20.1457C95.058 20.2669 95.0547 20.3883 95.042 20.5089C95.0265 20.514 95.0106 20.5178 94.9944 20.5201H94.0918C94.0549 20.5133 94.0168 20.519 93.9836 20.5364C93.9712 20.5615 93.9676 20.5901 93.9733 20.6175C93.976 20.7525 93.9866 20.8873 94.005 21.021C94.0183 21.1026 94.0245 21.1855 94.0348 21.2675C94.0548 21.4259 94.0861 21.5824 94.1184 21.7385C94.166 21.9583 94.2225 22.1749 94.2884 22.3881C94.404 22.7578 94.55 23.1174 94.7248 23.4632C95.2074 24.4082 95.8857 25.2397 96.7146 25.9023C97.5434 26.5649 98.5039 27.0435 99.5321 27.3061C99.7367 27.3587 99.9432 27.4034 100.149 27.4381C100.33 27.4687 100.512 27.4891 100.694 27.5089C100.949 27.5355 101.203 27.538 101.458 27.5431C101.506 27.5431 101.553 27.5431 101.598 27.5394C101.643 27.5357 101.654 27.5222 101.653 27.4808C101.653 27.4101 101.649 27.3403 101.643 27.2691C101.624 27.0024 101.626 26.7353 101.626 26.4687C101.627 26.3883 101.646 26.309 101.682 26.237C101.718 26.165 101.77 26.1021 101.833 26.053C101.94 25.9672 102.066 25.9094 102.201 25.8846C102.361 25.849 102.522 25.8139 102.683 25.781C102.804 25.7562 102.927 25.7351 103.049 25.7121C103.11 25.7009 103.171 25.6892 103.233 25.6797C103.325 25.6648 103.417 25.6474 103.508 25.6361C103.674 25.6085 103.842 25.5975 104.01 25.6033C104.069 25.6074 104.127 25.6178 104.184 25.6343C104.265 25.657 104.336 25.7075 104.384 25.7771C104.49 25.9174 104.588 26.0631 104.678 26.2135C104.753 26.3446 104.835 26.4717 104.916 26.6C104.924 26.6132 104.933 26.6256 104.943 26.637C104.951 26.6473 104.962 26.6546 104.974 26.6576C104.986 26.6606 104.999 26.6591 105.01 26.6533C105.03 26.6445 105.049 26.6341 105.067 26.6223C105.453 26.3745 105.835 26.1209 106.201 25.8453C106.659 25.4965 107.064 25.0838 107.405 24.6198C107.48 24.518 107.558 24.4188 107.632 24.3162C107.691 24.2337 107.747 24.1485 107.803 24.0635C107.839 24.0056 107.854 23.9366 107.844 23.869C107.839 23.8104 107.822 23.7533 107.795 23.701C107.768 23.6487 107.731 23.6023 107.686 23.5644C107.545 23.44 107.396 23.3235 107.242 23.2153C107.101 23.1282 106.991 23.001 106.924 22.8502C106.863 22.7013 106.853 22.5367 106.895 22.3816L106.99 21.9974L107.12 21.4717C107.164 21.2992 107.207 21.1266 107.25 20.9537C107.271 20.867 107.301 20.783 107.341 20.7034C107.386 20.6165 107.453 20.5423 107.534 20.4879C107.616 20.4334 107.71 20.4003 107.807 20.3917C107.952 20.373 108.098 20.3711 108.244 20.386C108.47 20.4076 108.696 20.4248 108.922 20.4423C109.003 20.4485 109.083 20.4489 109.165 20.4512C109.339 20.4512 109.514 20.4607 109.687 20.4795C109.752 20.4882 109.816 20.5058 109.877 20.5318C109.935 20.5566 109.987 20.5942 110.029 20.642C110.071 20.6897 110.101 20.7463 110.118 20.8074C110.15 20.9035 110.157 21.0064 110.138 21.106C110.118 21.1997 110.113 21.2934 110.098 21.3871C110.073 21.5412 110.05 21.696 110.018 21.8492C109.982 22.0236 109.94 22.1965 109.899 22.3699C109.849 22.5789 109.788 22.785 109.716 22.9875C109.5 23.63 109.204 24.2427 108.835 24.8109C108.602 25.1675 108.343 25.506 108.059 25.8235C107.619 26.3188 107.125 26.7643 106.588 27.1522C106.128 27.4885 105.634 27.7773 105.116 28.0139C104.811 28.1521 104.499 28.2755 104.182 28.3837C103.965 28.4572 103.743 28.5162 103.517 28.5711C103.292 28.626 103.068 28.6671 102.842 28.7057C102.725 28.7254 102.607 28.7328 102.49 28.748C102.373 28.7641 102.254 28.7704 102.136 28.7668C102.071 28.7664 102.006 28.7536 101.946 28.7289C101.884 28.7008 101.831 28.6546 101.795 28.5964C101.757 28.5368 101.729 28.471 101.714 28.4018C101.705 28.3662 101.693 28.3329 101.682 28.2955C101.66 28.2914 101.636 28.2887 101.613 28.2875H101.399C101.15 28.2888 100.901 28.2768 100.654 28.2514C100.471 28.2346 100.29 28.2116 100.109 28.1825C99.4944 28.087 98.8933 27.9211 98.3171 27.688C96.6129 27.0084 95.186 25.7765 94.2652 24.1896C93.8672 23.5022 93.577 22.7577 93.4048 21.9822C93.3483 21.7296 93.31 21.4769 93.2719 21.2211C93.2528 21.0833 93.2443 20.9473 93.2353 20.8077C93.2225 20.6023 93.2059 20.3972 93.2124 20.1915C93.22 19.9432 93.2333 19.6947 93.2599 19.4473C93.2771 19.2729 93.3 19.0995 93.3288 18.9271C93.3635 18.7252 93.4053 18.5236 93.4574 18.3244C93.5096 18.1253 93.5652 17.934 93.6292 17.742C93.7538 17.3717 93.9062 17.0114 94.0851 16.6641C94.4123 16.0282 94.8228 15.4388 95.3058 14.9115C96.2971 13.8365 97.5543 13.0419 98.9505 12.6076C99.1842 12.533 99.4219 12.4717 99.6625 12.4239C99.7875 12.4009 99.9113 12.3685 100.037 12.349C100.206 12.3228 100.375 12.3031 100.545 12.2838C100.697 12.2677 100.848 12.2555 101 12.2473C101.174 12.2383 101.348 12.2351 101.523 12.231H101.793C101.821 12.2312 101.847 12.2344 101.886 12.2369ZM109.703 17.6676C109.726 17.384 109.667 17.0997 109.533 16.8486C109.399 16.5976 109.196 16.3904 108.948 16.2517C108.699 16.1131 108.416 16.0488 108.132 16.0666C107.848 16.0843 107.575 16.1834 107.346 16.352C107.282 16.3974 107.222 16.4476 107.166 16.502C107.031 16.6336 106.923 16.7909 106.849 16.9648C106.774 17.1386 106.735 17.3255 106.734 17.5145C106.733 17.7035 106.769 17.8908 106.841 18.0656C106.913 18.2404 107.019 18.3991 107.153 18.5325L107.157 18.5367C107.399 18.7814 107.72 18.9337 108.062 18.9673C108.339 19.0005 108.62 18.9516 108.869 18.8267C109.1 18.7267 109.299 18.5661 109.446 18.3621C109.593 18.158 109.682 17.918 109.703 17.6676Z" fill="#111111"></path><path d="M101.291 21.6805C101.294 21.7197 101.298 21.7466 101.298 21.7742V22.465C101.298 22.5663 101.295 22.5677 101.193 22.5695H97.9088C97.8645 22.5751 97.8194 22.571 97.7768 22.5574C97.7632 22.5205 97.762 22.4802 97.7733 22.4425C97.8338 22.1119 97.9615 21.7972 98.1484 21.5178C98.2701 21.343 98.4052 21.1778 98.5524 21.0238C98.8144 20.7427 99.0965 20.4848 99.3776 20.2239C99.5499 20.0631 99.7175 19.8996 99.8829 19.7337C99.9943 19.6268 100.089 19.5038 100.164 19.369C100.234 19.2419 100.278 19.1026 100.295 18.9586C100.311 18.8204 100.289 18.6806 100.234 18.5532C100.202 18.4754 100.153 18.4059 100.09 18.35C100.028 18.294 99.953 18.2531 99.8721 18.2303C99.6841 18.1693 99.4809 18.1736 99.2956 18.2425C99.2123 18.272 99.1367 18.3201 99.0748 18.3832C99.0128 18.4463 98.966 18.5226 98.938 18.6065C98.9033 18.6954 98.8825 18.7892 98.8762 18.8844C98.8734 18.9053 98.8691 18.9259 98.8634 18.9462C98.8501 18.9494 98.8366 18.9513 98.8229 18.9517C98.5167 18.9235 98.2105 18.8948 97.9043 18.8656C97.8994 18.8656 97.8948 18.8585 97.8838 18.8502C97.8814 18.8247 97.8814 18.7991 97.8838 18.7737C97.9137 18.5856 97.9661 18.4019 98.04 18.2264C98.1709 17.9357 98.4044 17.7035 98.6957 17.5741C98.8871 17.4846 99.0917 17.4269 99.3016 17.403C99.4311 17.3865 99.5616 17.3796 99.692 17.3823C99.9382 17.384 100.182 17.4307 100.411 17.5201C100.601 17.5924 100.773 17.706 100.913 17.8526C101.054 17.9992 101.161 18.1752 101.225 18.3679C101.295 18.5814 101.316 18.8082 101.286 19.0309C101.239 19.3768 101.103 19.7046 100.892 19.9827C100.759 20.1686 100.606 20.3401 100.438 20.4944C100.2 20.7147 99.958 20.9308 99.7182 21.1506C99.5993 21.254 99.4895 21.3675 99.3902 21.4898C99.3565 21.5335 99.3243 21.5789 99.2954 21.6253C99.2784 21.6511 99.2915 21.6713 99.3243 21.6754C99.3559 21.677 99.3876 21.677 99.4192 21.6754H101.165C101.2 21.6768 101.24 21.6791 101.291 21.6805ZM105.181 21.5105C105.14 21.5105 105.106 21.5146 105.072 21.5146H104.645C104.611 21.5097 104.577 21.5149 104.546 21.5296C104.533 21.5641 104.528 21.6015 104.533 21.6382V22.4485C104.533 22.4818 104.53 22.5151 104.529 22.5454C104.498 22.5653 104.461 22.5727 104.425 22.5661H103.648C103.628 22.565 103.608 22.5628 103.588 22.5594C103.578 22.5487 103.571 22.5358 103.567 22.5217C103.563 22.5076 103.562 22.4927 103.565 22.4783V21.6325C103.565 21.5992 103.562 21.5663 103.56 21.5303C103.542 21.524 103.522 21.5195 103.503 21.5167H101.534C101.492 21.5211 101.45 21.517 101.41 21.5045C101.404 21.4846 101.4 21.4643 101.399 21.4437V20.6981C101.401 20.6548 101.418 20.6134 101.446 20.5806C101.611 20.3463 101.776 20.1119 101.94 19.8775L103.626 17.48C103.704 17.3704 103.678 17.3826 103.816 17.3817H104.419C104.454 17.3775 104.49 17.3816 104.523 17.3938C104.528 17.4107 104.531 17.4279 104.534 17.4453V20.5139C104.534 20.5477 104.534 20.5815 104.537 20.6152C104.537 20.6246 104.541 20.6334 104.548 20.64C104.554 20.6466 104.563 20.6504 104.573 20.6508C104.597 20.6508 104.62 20.6536 104.647 20.6536H105.087C105.119 20.653 105.151 20.6541 105.182 20.6568C105.187 20.6717 105.191 20.6871 105.192 20.7027V21.4671C105.19 21.4819 105.186 21.4964 105.181 21.5105ZM103.545 18.8954C103.522 18.9255 103.508 18.9414 103.498 18.9581L102.771 20.0107L102.391 20.558C102.375 20.581 102.35 20.604 102.351 20.6345C102.359 20.6416 102.364 20.6485 102.369 20.6485C102.748 20.6504 103.128 20.6516 103.508 20.6522C103.524 20.6537 103.539 20.6504 103.553 20.6427C103.566 20.6349 103.577 20.6232 103.583 20.609C103.59 20.5949 103.592 20.5791 103.589 20.5638C103.586 20.5485 103.578 20.5345 103.567 20.5238V18.9483C103.562 18.9305 103.554 18.9134 103.546 18.8973L103.545 18.8954ZM109.551 17.4333C109.567 17.7082 109.496 17.9813 109.349 18.214C109.202 18.4468 108.986 18.6276 108.73 18.731C108.528 18.8127 108.309 18.8448 108.092 18.8247C107.835 18.8041 107.589 18.7089 107.385 18.5507C107.181 18.3926 107.028 18.1783 106.944 17.9342C106.883 17.7629 106.862 17.5799 106.882 17.3991C106.904 17.1706 106.986 16.952 107.121 16.7658C107.255 16.5796 107.436 16.4325 107.646 16.3396C107.848 16.2388 108.073 16.1957 108.297 16.2149C108.556 16.2269 108.805 16.3145 109.015 16.4668C109.224 16.6192 109.384 16.8296 109.475 17.0721C109.521 17.1869 109.547 17.3093 109.551 17.4333ZM108.208 16.9384C108.054 16.9359 107.905 16.9943 107.794 17.101C107.683 17.2076 107.618 17.3538 107.614 17.5077C107.617 17.6621 107.68 17.8094 107.789 17.9181C107.899 18.0267 108.047 18.0882 108.201 18.0893C108.356 18.0924 108.506 18.0339 108.617 17.9267C108.729 17.8195 108.794 17.6724 108.797 17.5176C108.798 17.4424 108.783 17.3678 108.755 17.2981C108.727 17.2284 108.685 17.1651 108.632 17.1118C108.524 17.0032 108.377 16.9415 108.224 16.9402L108.208 16.9384Z" fill="#111111"></path><path d="M108.214 17.2898C108.276 17.2881 108.336 17.3108 108.381 17.3528C108.426 17.3948 108.453 17.4529 108.456 17.5146C108.457 17.5462 108.452 17.5777 108.441 17.6073C108.43 17.6369 108.413 17.6639 108.391 17.687C108.369 17.71 108.344 17.7286 108.315 17.7416C108.286 17.7546 108.255 17.7618 108.223 17.7628H108.214C108.152 17.761 108.093 17.7358 108.049 17.6924C108.005 17.6489 107.979 17.5905 107.977 17.5286C107.975 17.4673 107.997 17.4077 108.039 17.3629C108.081 17.3181 108.139 17.2917 108.2 17.2896L108.214 17.2898Z" fill="#111111"></path></g><defs><clipPath id="clip0_49_407"><rect width="117" height="40" fill="white"></rect></clipPath></defs></svg>