<svg xmlns="http://www.w3.org/2000/svg" width="90" height="26" viewBox="0 0 90 26" fill="none"><g clip-path="url(#clip0_59_457)"><g clip-path="url(#clip1_59_457)"><mask id="mask0_59_457" style="mask-type:luminance" maskUnits="userSpaceOnUse" x="0" y="0" width="90" height="26"><path d="M90 0H0V26H90V0Z" fill="white"></path></mask><g mask="url(#mask0_59_457)"><path fill-rule="evenodd" clip-rule="evenodd" d="M12.9479 3.06C12.3269 4.272 10.9319 4.863 9.62785 4.476C9.18985 4.346 8.73385 4.276 8.27185 4.276C7.33385 4.276 6.08385 4.823 6.08385 5.919C6.08385 7.065 7.46385 7.509 8.34885 7.796L9.65185 8.186C12.3859 8.996 14.4959 10.376 14.4959 13.558C14.4959 15.513 14.0259 17.52 12.4639 18.85C10.9279 20.154 8.86985 20.701 6.89085 20.701C4.42685 20.701 2.01485 19.873 0.0138527 18.476C0.000852666 18.466 -0.00414733 18.448 0.00385267 18.433L2.17685 14.34C3.45385 15.461 4.96385 16.373 6.70885 16.373C7.90685 16.373 9.18185 15.773 9.18185 14.392C9.18185 12.958 7.17785 12.462 6.08385 12.15C2.87985 11.237 0.769853 10.403 0.769853 6.596C0.769853 2.607 3.60985 0 7.54185 0C9.51085 0 11.9169 0.62 13.6599 1.6C13.6749 1.61 13.6819 1.629 13.6729 1.646L12.9479 3.061V3.06ZM20.1799 8.526C20.1909 8.526 20.2029 8.52 20.2089 8.511C21.3009 6.906 22.6269 6.361 24.4699 6.361C28.0629 6.361 29.4959 8.63 29.4959 11.915V17.355C29.4959 18.915 28.2329 20.18 26.6739 20.18H24.7899C24.7709 20.18 24.7559 20.165 24.7559 20.146V13.662C24.7559 12.384 24.9649 10.142 22.6209 10.142C20.6929 10.142 20.1469 11.576 20.1469 13.245V17.355C20.1469 18.915 18.8839 20.18 17.3249 20.18H15.4399C15.4219 20.18 15.4069 20.165 15.4069 20.146V6.838C15.4069 6.82 15.4219 6.805 15.4399 6.805H20.1129C20.1319 6.805 20.1469 6.82 20.1469 6.838V8.492C20.1469 8.511 20.1609 8.526 20.1799 8.526ZM35.2909 13.505C35.2909 15.2 36.4109 16.504 38.3379 16.504C40.2659 16.504 41.3859 15.2 41.3859 13.505C41.3859 11.863 40.2659 10.481 38.3379 10.481C36.4109 10.481 35.2909 11.863 35.2909 13.505ZM43.1469 20.18H41.2629C41.2439 20.18 41.2299 20.165 41.2299 20.146V18.728C41.2299 18.708 41.2139 18.694 41.1959 18.694C41.1839 18.694 41.1729 18.7 41.1669 18.709C40.3309 20.029 38.6969 20.623 37.1409 20.623C33.1818 20.623 30.3959 17.312 30.3959 13.479C30.3959 9.647 33.1299 6.361 37.0879 6.361C38.5949 6.361 40.1758 6.913 41.1698 8.04C41.1898 8.063 41.2299 8.05 41.2299 8.018V6.838C41.2299 6.82 41.2439 6.805 41.2629 6.805H45.9359C45.9539 6.805 45.9689 6.82 45.9689 6.838V17.355C45.9689 18.915 44.7059 20.18 43.1469 20.18ZM52.0019 13.505C52.0019 15.2 53.1219 16.504 55.0489 16.504C56.9759 16.504 58.0959 15.2 58.0959 13.505C58.0959 11.863 56.9759 10.481 55.0489 10.481C53.1209 10.481 52.0019 11.863 52.0019 13.505ZM52.1919 8.317C52.2019 8.317 52.2139 8.311 52.2199 8.302C53.0819 6.982 54.6899 6.362 56.2469 6.362C60.2319 6.362 62.9919 9.699 62.9919 13.532C62.9919 17.39 60.2579 20.623 56.2989 20.623C54.7659 20.623 53.1819 20.078 52.1659 18.911C52.1629 18.908 52.1589 18.91 52.1589 18.914V22.996C52.1589 24.556 50.8949 25.821 49.3369 25.821H47.4188V6.805H52.1589V8.283C52.1589 8.303 52.1729 8.317 52.1919 8.317ZM68.4609 13.505C68.4609 15.2 69.5809 16.504 71.5079 16.504C73.4349 16.504 74.5559 15.2 74.5559 13.505C74.5559 11.863 73.4349 10.481 71.5079 10.481C69.5799 10.481 68.4609 11.863 68.4609 13.505ZM68.6509 8.317C68.6619 8.317 68.6729 8.311 68.6789 8.302C69.5409 6.982 71.1489 6.362 72.7059 6.362C76.6899 6.362 79.4499 9.699 79.4499 13.532C79.4499 17.39 76.7159 20.623 72.7579 20.623C71.2509 20.623 69.6929 20.097 68.6759 18.969C68.6559 18.946 68.6159 18.96 68.6159 18.991V22.996C68.6159 24.556 67.3539 25.821 65.7959 25.821H63.9099C63.8919 25.821 63.8759 25.805 63.8759 25.787V6.838C63.8759 6.82 63.8919 6.805 63.9099 6.805H68.5819C68.6019 6.805 68.6159 6.82 68.6159 6.838V8.283C68.6159 8.303 68.6309 8.317 68.6489 8.317M84.9969 0.522L81.7849 12.872H84.4549C85.7469 12.872 86.8749 11.996 87.1989 10.743L89.8619 0.522H84.9969ZM83.3869 14.618C85.0419 14.618 86.3859 15.963 86.3859 17.62C86.3859 19.277 85.0419 20.622 83.3859 20.622C81.7319 20.622 80.3879 19.277 80.3879 17.62C80.3879 15.963 81.7319 14.618 83.3869 14.618Z" fill="white"></path></g></g></g><defs><clipPath id="clip0_59_457"><rect width="90" height="26" fill="white"></rect></clipPath><clipPath id="clip1_59_457"><rect width="90" height="26" fill="white"></rect></clipPath></defs></svg>